# xmcd
#
# Track frame offsets:
#	150
#	16169
#	28001
#	43152
#	53940
#	68780
#	84630
#	97500
#	110750
#	124241
#	136450
#	149608
#	170643
#	188239
#	205261
#	219377
#	232800
#	247211
#	263036
#	276956
#
# Disc length: 3882 seconds
#
# Revision: 1
# Processed by: cddbd v1.5.2PL0 Copyright (c) Steve Scherf et al.
# Submitted via: audiograbber 1.83.01
#
DISCID=2c0f2814
DTITLE=diverse - Wenn die Musi spielt Winter 2005 Open Air
DYEAR=2005
DGENRE=Volksmusik
TTITLE0=Trenkwalder - Wir Sind Alle Keine Engel
TTITLE1=Monique - Wo Hast Du Dieses Lachen Her 
TTITLE2=Ursprung Buam - Ein Casanova Kann Nit Aufgeig'n
TTITLE3=Ursprung Buam - Vom Zillertal Da Kemman Mia
TTITLE4=Frei - Wir Sind Frei
TTITLE5=Die Stoakogler - Die Superstoanishow
TTITLE6=Marc Pircher - Zum Nordpol und Zurück
TTITLE7=Marc Pircher - Ein Kleines Kompliment
TTITLE8=Die Mayrhofner - Heut' ist ein Tag Zum Feiern
TTITLE9=Belsy - Heute Abend Will Ich Tanzen
TTITLE10=Die Edlseer - Edl - Edler - Edlseer
TTITLE11=Die Edlseer -  Edlseer - Power - Medley
TTITLE12=Stefanie Hertel - Totale Gefühle 
TTITLE13=Stefanie Hertel - Erst Du, Dann Du
TTITLE14=Stefan Mross -  Schenk Dir Mein' Herzschlag
TTITLE15=Oswald Sattler - Ancora Tu
TTITLE16=Oswald Sattler - Spiel Mir das Lied der Heimat
TTITLE17=Antonia - Es Wedl'n die Wadl'n (Original - Mix)
TTITLE18=Marianne and Michael - Sierra Madre Del Sur
TTITLE19=Mountain Family - Open Air 
EXTD=
EXTT0=
EXTT1=
EXTT2=
EXTT3=
EXTT4=
EXTT5=
EXTT6=
EXTT7=
EXTT8=
EXTT9=
EXTT10=
EXTT11=
EXTT12=
EXTT13=
EXTT14=
EXTT15=
EXTT16=
EXTT17=
EXTT18=
EXTT19=
PLAYORDER=
